<svg id="Layer_1" data-name="Layer 1" xmlns="http://www.w3.org/2000/svg" viewBox="0 0 200 200"><defs><style>.cls-1{fill:#FF9E44;}</style></defs><path id="Mail" class="cls-1" d="M52.62,146.67a21.46,21.46,0,0,1-12-3.71l4.19-4.56,39-42.31,14.71,10,.7.25h.23l.37,0,.36,0a3,3,0,0,0,.73,0h.23l.49-.25L116.45,96l38.81,42.25,4.1,4.46a22.63,22.63,0,0,1-12.67,3.91H52.62Zm-16.19-8h0a25.11,25.11,0,0,1-4.31-14.43l0-48.51a26.06,26.06,0,0,1,3.14-12.64l4.91,3.36L78.61,92.65l-38,41.52-4.13,4.47Zm127.26,0h0l-4.15-4.55-38-41.54,38.38-26.11,5-3.34a24.79,24.79,0,0,1,3,12.7v48.44a23.78,23.78,0,0,1-4.18,14.41ZM99.76,99.7h0L85.22,89.76a3,3,0,0,0-1-.67L44.22,61.93,39,58.36a20.68,20.68,0,0,1,13.47-5c.41,0,.76,0,1.06,0h93.44a22.32,22.32,0,0,1,14,5L155.61,62,99.76,99.7Z"/></svg>