<svg id="Layer_1" data-name="Layer 1" xmlns="http://www.w3.org/2000/svg" viewBox="0 0 200 200"><defs><style>.cls-1{fill:#FF9E44;}</style></defs><g id="Group_4" data-name="Group 4"><g id="Group_5" data-name="Group 5"><path id="Path_12" data-name="Path 12" class="cls-1" d="M78.75,165.58c0,5.33.1,10.42,0,15.48-.09,3-3,4.31-6.47,3.15a81.81,81.81,0,0,1-20.65-10.32,85.84,85.84,0,0,1-36.4-54.12,86.83,86.83,0,0,1,146.3-79.1,81.64,81.64,0,0,1,24.39,50.17A85.65,85.65,0,0,1,164.13,160,84,84,0,0,1,128,183.72c-3.87,1.33-6.26-.42-6.27-4.56,0-6.78-.08-13.57,0-20.36s-.79-13.29-5.63-18.72c3.49-.68,6.84-1.21,10.12-2,10.93-2.66,19.88-8.09,24.79-18.69a51.89,51.89,0,0,0,4.06-26.15,30.62,30.62,0,0,0-7.72-18.62,2.14,2.14,0,0,1-.29-1.77,32,32,0,0,0-.66-21.06c-.41-1.23-1.21-1.25-2.18-1.24a30.68,30.68,0,0,0-13.43,3.92c-2.47,1.22-4.77,2.79-7.23,4a4.65,4.65,0,0,1-2.93.46A86.13,86.13,0,0,0,80,59a3.78,3.78,0,0,1-3.3-.62,47.46,47.46,0,0,0-16.91-7.54c-4.86-.93-5.43-.63-6.62,4.06a30.29,30.29,0,0,0,.37,18.17,2,2,0,0,1-.35,1.62,36.44,36.44,0,0,0-7.79,27.34,49.21,49.21,0,0,0,4.18,17.28,34.3,34.3,0,0,0,23.18,18.31c3.19.91,6.51,1.37,9.76,2l1.91.37a16.86,16.86,0,0,0-5.53,10.66,1.87,1.87,0,0,1-1,1.16,22.55,22.55,0,0,1-12.31,1.86,16.79,16.79,0,0,1-11.93-8.66,17.62,17.62,0,0,0-12.19-9,10.83,10.83,0,0,0-4.09.21c-1.48.3-1.75,1.36-.75,2.51a9.3,9.3,0,0,0,2.13,1.82,22.45,22.45,0,0,1,9.73,11.66c4,10.79,13.92,15.27,25.57,13.92,1.49-.17,3-.41,4.7-.65"/></g></g></svg>