<svg id="Layer_1" data-name="Layer 1" xmlns="http://www.w3.org/2000/svg" viewBox="0 0 200 200"><defs><style>.cls-1{fill:#FF9E44;}</style></defs><g id="Linkedin"><path id="Linkedin-2" class="cls-1" d="M134.81,159.38V120.8c0-9.22-.14-21.06-12.79-21.06-12.82,0-14.74,10.05-14.74,20.37v39.27H82.69V80h23.54V90.89h.32A25.89,25.89,0,0,1,129.86,78.1c24.92,0,29.54,16.42,29.54,37.79v43.49Zm-67.66,0H42.52V80H67.16v79.35h0ZM82.64,80h0Zm-42-25.13A14.29,14.29,0,1,1,54.88,69.2,14.29,14.29,0,0,1,40.6,54.89Z"/></g></svg>