<?xml version="1.0" encoding="UTF-8"?>
<svg version="1.1" viewBox="0 0 700 600" xmlns="http://www.w3.org/2000/svg" xmlns:xlink="http://www.w3.org/1999/xlink">
<style>.cls-1{fill:#FF9E44;}</style>
 <g>
  <path class="cls-1" d="m364.96 185.24c0 8.2578-6.6992 14.957-14.957 14.957-8.2617 0-14.957-6.6992-14.957-14.957 0-8.2617 6.6953-14.961 14.957-14.961 8.2578 0 14.957 6.6992 14.957 14.961"/>
  <path class="cls-1" d="m322.87 204.92c-4.0352-5.5469-6.4883-12.312-6.4883-19.684 0-18.539 15.086-33.625 33.625-33.625 18.539 0 33.625 15.086 33.625 33.625 0 7.3867-2.4648 14.164-6.5195 19.715 9.8203 3.543 18.816 9.0664 26.605 16.211 4.75-8.6953 7.457-18.66 7.457-29.25 0-33.746-27.453-61.199-61.203-61.199s-61.203 27.453-61.203 61.199c0 10.594 2.7109 20.562 7.4648 29.262 7.7773-7.168 16.785-12.711 26.637-16.254z"/>
  <path class="cls-1" d="m307.62 236c11.004 10.574 25.914 17.113 42.344 17.113 16.438 0 31.352-6.543 42.355-17.125-11.312-10.941-26.352-17.129-42.367-17.129-16.051 0-31.078 6.1914-42.332 17.141z"/>
  <path class="cls-1" d="m176.82 56v448c0 5.1328 4.1055 9.332 9.332 9.332h327.69c5.1328 0 9.332-4.1992 9.332-9.332l0.003907-448c0-5.1328-4.1992-9.332-9.332-9.332h-327.7c-5.2266 0-9.332 4.1992-9.332 9.332zm173.14 56.051c44.043 0 79.871 35.828 79.871 79.867 0 18.281-6.2422 35.094-16.613 48.57-0.011718 0.023438-0.035156 0.039063-0.046875 0.0625-14.617 18.953-37.48 31.234-63.211 31.234-44.043 0-79.871-35.828-79.871-79.867 0-44.039 35.832-79.867 79.871-79.867zm-108.5 198.23h217c5.1602 0 9.332 4.1797 9.332 9.332 0 5.1562-4.1758 9.332-9.332 9.332h-217c-5.1602 0-9.332-4.1797-9.332-9.332 0-5.1523 4.1758-9.332 9.332-9.332zm0 59.5h217c5.1602 0 9.332 4.1797 9.332 9.332 0 5.1562-4.1758 9.332-9.332 9.332h-217c-5.1602 0-9.332-4.1797-9.332-9.332 0-5.1523 4.1758-9.332 9.332-9.332zm0 59.5h217c5.1602 0 9.332 4.1797 9.332 9.332 0 5.1562-4.1758 9.332-9.332 9.332h-217c-5.1602 0-9.332-4.1797-9.332-9.332 0-5.1523 4.1758-9.332 9.332-9.332z"/>
  <use x="70" y="700" xlink:href="#m"/>
  <use x="104.25" y="700" xlink:href="#d"/>
  <use x="127.261719" y="700" xlink:href="#b"/>
  <use x="158.914062" y="700" xlink:href="#c"/>
  <use x="190.402344" y="700" xlink:href="#a"/>
  <use x="212.710937" y="700" xlink:href="#b"/>
  <use x="244.363281" y="700" xlink:href="#i"/>
  <use x="294.015625" y="700" xlink:href="#h"/>
  <use x="327.417969" y="700" xlink:href="#g"/>
  <use x="374.085938" y="700" xlink:href="#f"/>
  <use x="410.203125" y="700" xlink:href="#b"/>
  <use x="441.851562" y="700" xlink:href="#l"/>
  <use x="469.515625" y="700" xlink:href="#a"/>
  <use x="491.824219" y="700" xlink:href="#k"/>
  <use x="523.882812" y="700" xlink:href="#d"/>
  <use x="546.898438" y="700" xlink:href="#j"/>
  <use x="574.675781" y="700" xlink:href="#a"/>
  <use x="596.984375" y="700" xlink:href="#c"/>
  <use x="628.472656" y="700" xlink:href="#e"/>
  <use x="644.46875" y="700" xlink:href="#e"/>
 </g>
</svg>
